Up In The Air (2009) DVDRip XviD-MAX

Format                           : AVI
Format/Info                      : Audio Video Interleave
File size                        : 1.37 GiB
Duration                         : 1h 49mn
Overall bit rate                 : 1 792 Kbps
Writing application              : VirtualDubMod 1.5.10.2 (build 2542/release)
Writing library                  : VirtualDubMod build 2542/release
Original source form             : MAX TORRENTZ
Copyright                        : SIGISMUNT

Video
ID                               : 0
Format                           : MPEG-4 Visual
Format profile                   : AdvancedSimple[@]L5
Format settings, BVOP            : Yes
Format settings, QPel            : No
Format settings, GMC             : No warppoints
Format settings, Matrix          : Default (H.263)
Codec ID                         : XVID
Codec ID/Hint                    : XviD
Duration                         : 1h 49mn
Bit rate                         : 1 334 Kbps
Width                            : 608 pixels
Height                           : 320 pixels
Display aspect ratio             : 1.900
Frame rate                       : 23.976 fps
Resolution                       : 24 bits
Colorimetry                      : 4:2:0
Scan type                        : Progressive
Bits/(Pixel*Frame)               : 0.286
Stream size                      : 1.02 GiB (74%)
Writing library                  : XviD 1.2.1 (UTC 2008-12-04)

Audio
ID                               : 1
Format                           : AC-3
Format/Info                      : Audio Coding 3
Codec ID                         : 2000
Duration                         : 1h 49mn
Bit rate mode                    : Constant
Bit rate                         : 448 Kbps
Channel(s)                       : 6 channels
Channel positions                : Front: L C R, Surround: L R, LFE
Sampling rate                    : 48.0 KHz
Stream size                      : 350 MiB (25%)
Alignment                        : Split accross interleaves
Interleave, duration             : 42 ms (1.00 video frame)
Interleave, preload duration     : 500 ms 
http://www.imdb.com/title/tt1193138/

Screens: 
http://www.postimg.com/image/12000/11392.jpg 
http://www.postimg.com/image/12000/11393.jpg 
http://www.postimg.com/image/12000/11394.jpg 
http://www.postimg.com/image/12000/11395.jpg

ScreenCaps: 
http://www.postimg.com/image/12000/11396.jpg

Up In The Air (2009) DVDRip XviD-MAX Torrent Free Download 
http://thepiratebay.org/user/extremezone/0/7

How To Get Your Maxspeed (uTorrent)

Torrent Client - Preferences - Bandwidth - Number of connections - Set aprox. 500 for each 
Torrent Client - Preferences - BiTorrent - Protocol Encryption - Forced
Bandwidth Allocation - High (Set download/upload limit - Unlimited)
Stop Other Active Torrents - Start downloading and wait for connections
Enjoy and Seed for at least 1:1 ratio. Also please spread the link where you found this torrent to your friends.